<svg width="40" height="40" viewBox="0 0 40 40" fill="none" xmlns="http://www.w3.org/2000/svg">
<g clip-path="url(#clip0_36_7)">
<rect width="40" height="40" fill="white"/>
<rect width="40" height="40" fill="black"/>
<path d="M11.736 20.2472C11.1224 20.2472 10.5968 20.0312 10.1593 19.5994C9.7275 19.1676 9.51443 18.6449 9.52011 18.0312C9.51443 17.429 9.7275 16.9148 10.1593 16.4886C10.5968 16.0568 11.1224 15.8409 11.736 15.8409C12.3156 15.8409 12.8269 16.0568 13.2701 16.4886C13.719 16.9148 13.9463 17.429 13.9519 18.0312C13.9463 18.4403 13.8383 18.8125 13.6281 19.1477C13.4235 19.483 13.1536 19.75 12.8184 19.9489C12.4889 20.1477 12.1281 20.2472 11.736 20.2472ZM20.0085 20.2472C19.3949 20.2472 18.8693 20.0312 18.4318 19.5994C18 19.1676 17.7869 18.6449 17.7926 18.0312C17.7869 17.429 18 16.9148 18.4318 16.4886C18.8693 16.0568 19.3949 15.8409 20.0085 15.8409C20.5881 15.8409 21.0994 16.0568 21.5426 16.4886C21.9915 16.9148 22.2188 17.429 22.2244 18.0312C22.2188 18.4403 22.1108 18.8125 21.9006 19.1477C21.696 19.483 21.4261 19.75 21.0909 19.9489C20.7614 20.1477 20.4006 20.2472 20.0085 20.2472ZM28.281 20.2472C27.6674 20.2472 27.1418 20.0312 26.7043 19.5994C26.2725 19.1676 26.0594 18.6449 26.0651 18.0312C26.0594 17.429 26.2725 16.9148 26.7043 16.4886C27.1418 16.0568 27.6674 15.8409 28.281 15.8409C28.8606 15.8409 29.3719 16.0568 29.8151 16.4886C30.264 16.9148 30.4912 17.429 30.4969 18.0312C30.4912 18.4403 30.3833 18.8125 30.1731 19.1477C29.9685 19.483 29.6986 19.75 29.3634 19.9489C29.0339 20.1477 28.6731 20.2472 28.281 20.2472ZM4.08415 36.2472C3.47051 36.2472 2.94494 36.0312 2.50744 35.5994C2.07562 35.1676 1.86256 34.6449 1.86824 34.0312C1.86256 33.429 2.07562 32.9148 2.50744 32.4886C2.94494 32.0568 3.47051 31.8409 4.08415 31.8409C4.66369 31.8409 5.17506 32.0568 5.61824 32.4886C6.0671 32.9148 6.29437 33.429 6.30006 34.0312C6.29437 34.4403 6.18642 34.8125 5.97619 35.1477C5.77165 35.483 5.50176 35.75 5.16653 35.9489C4.83699 36.1477 4.47619 36.2472 4.08415 36.2472ZM35.9329 36.2472C35.3193 36.2472 34.7937 36.0312 34.3562 35.5994C33.9244 35.1676 33.7113 34.6449 33.717 34.0312C33.7113 33.429 33.9244 32.9148 34.3562 32.4886C34.7937 32.0568 35.3193 31.8409 35.9329 31.8409C36.5124 31.8409 37.0238 32.0568 37.467 32.4886C37.9159 32.9148 38.1431 33.429 38.1488 34.0312C38.1431 34.4403 38.0352 34.8125 37.8249 35.1477C37.6204 35.483 37.3505 35.75 37.0153 35.9489C36.6857 36.1477 36.3249 36.2472 35.9329 36.2472Z" fill="white"/>
<path d="M18.2203 33.392V35.7699H10.0044V33.392H18.2203ZM30.0084 33.392V35.7699H21.7925V33.392H30.0084Z" fill="black"/>
<path d="M17.1981 24.4432V28.7273H6.42534V24.4432H17.1981ZM33.5718 24.4432V28.7273H22.7991V24.4432H33.5718Z" fill="white"/>
</g>
<defs>
<clipPath id="clip0_36_7">
<rect width="40" height="40" fill="white"/>
</clipPath>
</defs>
</svg>
